<svg width="32" height="32" viewBox="0 0 32 32" fill="none" xmlns="http://www.w3.org/2000/svg">
<path d="M15.7 0.699951C7.20004 0.699951 0.300049 7.59995 0.300049 16C0.300049 24.4 7.20004 31.2999 15.7 31.2999C24.2 31.2999 31.1001 24.4 31.1001 16C31.1001 7.49995 24.2 0.699951 15.7 0.699951ZM25.8 7.89995C27.6 10.1 28.6 12.8 28.7 15.8C28.1 15.7 25.6 15.2 22.7 15.2C21.7 15.2 20.7 15.2 19.7 15.4C19.6 15.2 19.5 15 19.4 14.8C19.1 14.2 18.9001 13.6 18.6001 13C23.2001 11.1 25.4 8.49995 25.8 7.89995ZM15.7 3.09995C19 3.09995 22 4.29995 24.2 6.29995C23.8 6.79995 21.9 9.19995 17.5 10.9C15.5 7.19995 13.3 4.09995 12.7 3.39995C13.7 3.19995 14.7 3.09995 15.7 3.09995ZM10.1001 4.29995C10.5001 4.89995 12.8 7.99995 14.8 11.7C9.20005 13.2 4.30005 13.3 3.10005 13.3H3.00005C3.90005 9.29995 6.60005 5.99995 10.1001 4.29995ZM2.70004 16C2.70004 15.9 2.70004 15.8 2.70004 15.7C2.80004 15.7 2.90005 15.7 3.00005 15.7C4.60005 15.7 10.2 15.6 16 13.9C16.3 14.6 16.7 15.3 17 16C16.9 16 16.7001 16.1 16.6001 16.1C10.1001 18.2 6.50005 23.7 6.00005 24.6C4.00005 22.3 2.70004 19.3 2.70004 16ZM15.7 29C12.7 29 10 28 7.80005 26.2999C8.20005 25.5999 10.9 20.6999 18 18.2999C19.8 22.9 20.5 26.7999 20.7 28C19.2 28.6 17.5 29 15.7 29ZM23.1001 26.7C22.9001 25.7 22.2001 22.1 20.6001 17.6C21.5001 17.5 22.4 17.4 23.2 17.4C25.9 17.4 28 18 28.5 18.1C27.9 21.7 25.9001 24.7 23.1001 26.7Z" fill="white"/>
</svg>
