<svg width="32" height="20" viewBox="0 0 32 20" fill="none" xmlns="http://www.w3.org/2000/svg">
<path d="M16.4 14.8C16.4 15.6 16.2 16.4 15.9 17C15.6 17.6 15.1 18.2 14.5 18.6C13.9 19 13.2 19.3 12.5 19.6C11.7 19.8 10.9 19.9 10 19.9H0.5V0.199951H11C11.7 0.199951 12.3 0.299951 12.9 0.599951C13.5 0.899951 13.9 1.29995 14.3 1.79995C14.7 2.29995 15 2.79995 15.2 3.39995C15.4 3.99995 15.5 4.59995 15.5 5.19995C15.5 6.19995 15.3 7.09995 14.8 7.89995C14.3 8.69995 13.6 9.39995 12.7 9.79995C13.8 10.1 14.7 10.7 15.4 11.6C16 12.4 16.4 13.5 16.4 14.8ZM4.3 3.39995V8.39995H9.4C10 8.39995 10.6 8.19995 11 7.69995C11.5 7.29995 11.7 6.59995 11.7 5.89995C11.7 5.09995 11.5 4.49995 11.1 4.09995C10.7 3.69995 10.2 3.39995 9.6 3.39995H4.3ZM12.5 14.1C12.5 13.7 12.4 13.4 12.3 13.1C12.2 12.8 12 12.5 11.8 12.3C11.6 12.1 11.4 11.9 11.1 11.7C10.8 11.6 10.5 11.5 10.2 11.5H4.3V16.7H10C10.4 16.7 10.7 16.6 11 16.5C11.3 16.4 11.6 16.2 11.8 16C12 15.8 12.2 15.5 12.3 15.2C12.4 14.7 12.5 14.4 12.5 14.1Z" fill="white"/>
<path d="M24.6 19.8C23.5 19.8 22.5 19.6 21.5 19.2C19.7 18.4 18.4 17.1 17.7 15.3C17.4 14.4 17.2 13.5 17.2 12.5C17.2 11.5 17.4 10.6 17.7 9.69995C18.4 7.89995 19.7 6.49995 21.5 5.79995C22.4 5.39995 23.5 5.19995 24.6 5.19995C25.7 5.19995 26.8 5.39995 27.7 5.79995C30.7 7.09995 32.1 9.99995 31.9 13.1C31.9 13.3 31.9 13.5 31.8 13.6H21C21.1 14.2 21.2 14.6 21.4 15.1C21.6 15.5 21.9 15.9 22.2 16.2C22.5 16.5 22.9 16.7 23.4 16.9C23.8 17.1 24.3 17.1 24.7 17.1C25.4 17.1 26.1 16.9 26.7 16.6C27.3 16.3 27.8 15.8 28 15.2L31.1 16.1C30.6 17.2 29.8 18.1 28.6 18.7C27.6 19.5 26.2 19.8 24.6 19.8ZM28.3 11.4C28.2 10.3 27.8 9.49995 27.1 8.89995C26.4 8.29995 25.6 7.89995 24.6 7.89995C24.1 7.89995 23.7 7.99995 23.2 8.19995C22.8 8.39995 22.4 8.59995 22.1 8.89995C21.8 9.19995 21.5 9.59995 21.3 9.99995C21.1 10.4 21 10.9 20.9 11.4H28.3Z" fill="white"/>
<path d="M19.8999 1.09985H29.2999V3.39985H19.8999V1.09985Z" fill="white"/>
</svg>
