<svg width="32" height="32" viewBox="0 0 32 32" fill="none" xmlns="http://www.w3.org/2000/svg">
<path d="M24.5001 5.69995C23.5001 5.69995 22.6001 6.49995 22.6001 7.59995C22.6001 8.59995 23.4001 9.49995 24.5001 9.49995C25.5001 9.49995 26.4001 8.69995 26.4001 7.59995C26.4001 6.59995 25.5001 5.69995 24.5001 5.69995Z" fill="white"/>
<path d="M16.1 8.1001C11.8 8.1001 8.19995 11.6001 8.19995 16.0001C8.19995 20.3001 11.7 23.9001 16.1 23.9001C20.4 23.9001 24 20.4001 24 16.0001C24 11.7001 20.5 8.1001 16.1 8.1001ZM16.1 21.1001C13.3 21.1001 11 18.8001 11 16.0001C11 13.2001 13.3 10.9001 16.1 10.9001C18.9 10.9001 21.2 13.2001 21.2 16.0001C21.2 18.8001 18.9 21.1001 16.1 21.1001Z" fill="white"/>
<path d="M22.4 32H9.6C4.3 32 0 27.7 0 22.4V9.6C0 4.3 4.3 0 9.6 0H22.4C27.7 0 32 4.3 32 9.6V22.4C32 27.7 27.7 32 22.4 32ZM9.6 3C6 3 3 6 3 9.6V22.4C3 26 6 29 9.6 29H22.4C26 29 29 26 29 22.4V9.6C29 6 26 3 22.4 3H9.6Z" fill="white"/>
</svg>
