<svg width="88" height="42" viewBox="0 0 88 42" fill="none" xmlns="http://www.w3.org/2000/svg">
<g clip-path="url(#clip0)">
<path d="M2.1001 21.5L20.4001 3.19999C21.8001 1.79999 24.2001 1.79999 25.6001 3.19999L41.3001 18.9C42.7001 20.3 45.1001 20.3 46.5001 18.9L62.3001 3.19999C63.7001 1.79999 66.1001 1.79999 67.5001 3.19999L85.8001 21.5" stroke="#333333" stroke-width="4.1525" stroke-miterlimit="10" stroke-linecap="round"/>
<path d="M2.1001 39.3L20.4001 21C21.8001 19.6 24.2001 19.6 25.6001 21L41.3001 36.7C42.7001 38.1 45.1001 38.1 46.5001 36.7L62.3001 21C63.7001 19.6 66.1001 19.6 67.5001 21L85.8001 39.3" stroke="#333333" stroke-width="4.1525" stroke-miterlimit="10" stroke-linecap="round"/>
</g>
<defs>
<clipPath id="clip0">
<rect width="87.9" height="41.4" fill="white"/>
</clipPath>
</defs>
</svg>
