<svg width="27" height="26" viewBox="0 0 27 26" fill="none" xmlns="http://www.w3.org/2000/svg">
<path d="M1.19995 8.70005H6.49995V25.7001H1.19995V8.70005ZM3.79996 0.300049C5.49996 0.300049 6.89996 1.70005 6.89996 3.40005C6.89996 5.10005 5.49996 6.50005 3.79996 6.50005C2.09996 6.50005 0.699951 5.10005 0.699951 3.40005C0.699951 1.70005 2.09996 0.300049 3.79996 0.300049Z" fill="white"/>
<path d="M9.80005 8.70005H14.9V11H15C15.7 9.70005 17.4 8.30005 20 8.30005C25.3 8.30005 26.3 11.8 26.3 16.4V25.7001H21V17.4C21 15.4 21 12.9 18.3 12.9C15.6 12.9 15.1 15 15.1 17.3V25.7001H9.80005V8.70005Z" fill="white"/>
</svg>
