<svg width="99" height="99" viewBox="0 0 99 99" fill="none" xmlns="http://www.w3.org/2000/svg">
<g clip-path="url(#clip0)">
<path d="M49.5 99C76.8381 99 99 76.8381 99 49.5C99 22.1619 76.8381 0 49.5 0C22.1619 0 0 22.1619 0 49.5C0 76.8381 22.1619 99 49.5 99Z" fill="#006FF9"/>
<path d="M78.9999 26.7L64.5999 14C64.5999 14 64.4999 14 64.4999 13.9C64.2999 13.8 64.1999 13.7 63.9999 13.6C63.9999 13.6 63.8999 13.6 63.8999 13.5C63.6999 13.4 63.4999 13.3 63.1999 13.3C63.0999 13.3 63.0999 13.3 62.9999 13.3C62.8999 13.3 62.7999 13.3 62.6999 13.3H35.1999C35.0999 13.3 34.8999 13.3 34.7999 13.3H34.6999C34.4999 13.3 34.1999 13.4 33.9999 13.5C33.9999 13.5 33.8999 13.5 33.8999 13.6C33.6999 13.7 33.4999 13.8 33.3999 14C33.3999 14 33.3999 14 33.2999 14L19.7999 26.8C19.1999 27.3 18.8999 28.1 18.8999 28.8V51.9001V52C18.8999 52.7001 19.0999 53.4001 19.5999 54L47.2999 84.7C47.7999 85.3 48.5999 85.6 49.3999 85.6C50.1999 85.6 50.8999 85.3 51.4999 84.7C71.8999 62.4 77.4999 56 79.0999 53.9001C79.3999 53.6001 79.5999 53.3001 79.6999 52.9001C79.7999 52.8001 79.7999 52.7 79.7999 52.6V52.5C79.7999 52.4001 79.7999 52.3 79.8999 52.2001C79.8999 52.1001 79.8999 52 79.8999 52V51.9001V28.8C79.8999 28 79.5999 27.3 78.9999 26.7ZM37.8999 19.6C37.8999 19.2 38.1999 18.9 38.5999 18.9H59.1999C59.5999 18.9 59.8999 19.2 59.8999 19.6V36.7001C59.8999 36.9001 59.7999 37.1 59.6999 37.2001L49.6999 47.6C49.3999 47.9 48.8999 47.9 48.6999 47.6L38.0999 36.4001C37.9999 36.3001 37.8999 36.1001 37.8999 35.9001V19.6ZM24.4999 43.7001V30.3C24.4999 30.1 24.5999 29.9 24.6999 29.8L31.0999 23.7C31.5999 23.3 32.2999 23.6 32.2999 24.2V37.3C32.2999 37.5 32.1999 37.7 32.0999 37.8L25.6999 44.2001C25.2999 44.7001 24.4999 44.3001 24.4999 43.7001ZM73.0999 52.5C69.4999 56.7001 60.9999 66.1001 53.3999 74.4001C52.7999 75 51.9999 75.4001 51.1999 75.4001H47.7999C46.9999 75.4001 46.0999 75 45.5999 74.4001L25.8999 52.6C25.6999 52.4 25.6999 52 25.8999 51.8L35.2999 42.4001C35.4999 42.2001 35.8999 42.2001 36.0999 42.4001L47.2999 54C47.7999 54.5 48.4999 54.9001 49.2999 54.9001C50.0999 54.9001 50.7999 54.6 51.2999 54L62.6999 42.2001C62.8999 42 63.2999 42 63.4999 42.2001C65.0999 43.8001 71.4999 50.2001 73.0999 51.8C73.2999 52 73.2999 52.3 73.0999 52.5ZM74.3999 43.5C74.3999 44.1 73.5999 44.5 73.1999 44L65.8999 36.7001C65.7999 36.6 65.6999 36.4001 65.6999 36.2001V23.9C65.6999 23.3 66.3999 22.9 66.8999 23.4L74.1999 29.9C74.3999 30 74.3999 30.2 74.3999 30.4V43.5Z" fill="white"/>
</g>
<defs>
<clipPath id="clip0">
<rect width="98.9" height="98.9" fill="white"/>
</clipPath>
</defs>
</svg>
