<svg width="182" height="38" viewBox="0 0 182 38" fill="none" xmlns="http://www.w3.org/2000/svg">
<g clip-path="url(#clip0)">
<path d="M30.9 6.9L23.5 0.3C23.4 0.2 23.3 0.2 23.2 0.1C23.2 0.1 23.2 0.1 23.1 0.1C23 0.1 22.9 0 22.8 0H22.7C22.6 0 22.6 0 22.5 0H8.3C8.2 0 8.2 0 8.1 0C8.1 0 8.1 0 8 0C7.9 0 7.8 0.1 7.7 0.1C7.7 0.1 7.7 0.1 7.6 0.1C7.5 0.2 7.4 0.3 7.4 0.4L0.4 7C0.2 7.2 0 7.6 0 8V19.9C0 20.3 0.1 20.6 0.4 20.9L14.6 36.7C14.9 37 15.3 37.2 15.7 37.2C16.1 37.2 16.5 37 16.8 36.7C27.2 25.3 30.1 22 30.9 20.9C31 20.8 31.2 20.6 31.2 20.4C31.2 20.3 31.2 20.3 31.2 20.3C31.2 20.2 31.2 20.2 31.2 20.1V20V8C31.3 7.6 31.2 7.2 30.9 6.9ZM9.7 3.2C9.7 3 9.9 2.8 10.1 2.8H20.7C20.9 2.8 21.1 3 21.1 3.2V12C21.1 12.1 21.1 12.2 21 12.3L15.9 17.6C15.8 17.8 15.5 17.8 15.4 17.6L9.9 11.9C9.8 11.8 9.8 11.7 9.8 11.6V3.2H9.7ZM2.9 15.6V8.8C2.9 8.7 2.9 8.6 3 8.5L6.3 5.4C6.5 5.2 6.9 5.3 6.9 5.7V12.4C6.9 12.5 6.9 12.6 6.8 12.7L3.5 16C3.3 16.1 2.9 16 2.9 15.6ZM27.8 20.2C25.9 22.3 21.6 27.2 17.7 31.4C17.4 31.7 17 31.9 16.6 31.9H14.8C14.4 31.9 13.9 31.7 13.7 31.4L3.6 20.2C3.5 20.1 3.5 19.9 3.6 19.8L8.4 15C8.5 14.9 8.7 14.9 8.8 15L14.5 21C14.8 21.3 15.1 21.4 15.5 21.4C15.9 21.4 16.3 21.2 16.5 21L22.3 14.9C22.4 14.8 22.6 14.8 22.7 14.9C23.5 15.7 26.8 19 27.6 19.8C27.9 19.9 27.9 20.1 27.8 20.2ZM28.5 15.5C28.5 15.8 28.1 16 27.9 15.8L24.1 12C24 12 24 11.9 24 11.8V5.5C24 5.2 24.4 5 24.6 5.2L28.4 8.6C28.5 8.7 28.5 8.8 28.5 8.9V15.5Z" fill="#141414"/>
<path d="M54.7 4.29999C55 4.29999 55.3 4.59999 55.3 4.89999V18.5C55.3 19.8 55.6 21.3 57.2 21.3C58.8 21.3 59.1 20 59.1 18.5V4.89999C59.1 4.59999 59.4 4.29999 59.7 4.29999H63.1C63.4 4.29999 63.7 4.59999 63.7 4.89999V18.4C63.7 22.5 61.7 25 57 25C52.3 25 50.5 22.6 50.5 18.4V4.89999C50.5 4.59999 50.8 4.29999 51.1 4.29999H54.7Z" fill="#141414"/>
<path d="M65.4 4.89999C65.4 4.59999 65.7 4.29999 66 4.29999H72.1C75.7 4.29999 77.8 6.19999 77.8 9.49999C77.8 11.4 77.2 12.5 76.3 13.2C76 13.5 76 14 76.3 14.2C77.4 14.9 78.3 16.2 78.3 18.6C78.3 22.6 75.8 24.6 71.9 24.6H65.9C65.6 24.6 65.3 24.3 65.3 24V4.89999H65.4ZM71.2 12.2C72.9 12.2 73.3 11.5 73.3 9.89999C73.3 8.29999 72.7 7.69999 71.2 7.69999H70.2C70.1 7.69999 70 7.79999 70 7.99999V11.9C70 12.1 70.1 12.2 70.3 12.2H71.2ZM70 20.9C70 21.1 70.1 21.2 70.3 21.2H71.5C72.9 21.2 73.7 20.5 73.7 18.4C73.7 16.3 73.1 15.5 71.2 15.5H70.3C70.1 15.5 70 15.6 70 15.8V20.9Z" fill="#141414"/>
<path d="M97.2 20.5L96.6 24.3C96.6 24.4 96.4 24.6 96.3 24.6H92.3C92.1 24.6 92 24.4 92 24.2L95.9 4.49999C95.9 4.39999 96.1 4.29999 96.2 4.29999H102.3C102.4 4.29999 102.6 4.39999 102.6 4.49999L106.5 24.2C106.5 24.4 106.4 24.6 106.2 24.6H102C101.9 24.6 101.7 24.5 101.7 24.3L101.1 20.5C101.1 20.4 100.9 20.2 100.8 20.2H97.6C97.3 20.2 97.2 20.3 97.2 20.5ZM99.9 16.3C100.1 16.3 100.2 16.1 100.2 16C99.8 13.6 99.2 10.9 99.1 9.99999C99.1 9.89999 99 9.89999 99 9.99999C98.8 10.8 98.3 13.6 97.9 16C97.9 16.2 98 16.3 98.2 16.3C98.6 16.3 99.5 16.3 99.9 16.3Z" fill="#141414"/>
<path d="M42.9 11.9H41.2C40.9 11.9 40.6 11.6 40.6 11.3V4.89999C40.6 4.59999 40.3 4.29999 40 4.29999H36.6C36.3 4.29999 36 4.59999 36 4.89999V24C36 24.3 36.3 24.6 36.6 24.6H40C40.3 24.6 40.6 24.3 40.6 24V16.5C40.6 16.2 40.9 15.9 41.2 15.9H42.9C43.2 15.9 43.5 15.6 43.5 15.3V12.6C43.5 12.2 43.2 11.9 42.9 11.9Z" fill="#141414"/>
<path d="M45.1 4.29999C44.8 4.29999 44.5 4.59999 44.5 4.89999V10.5V12V15.9V16.9V23.9C44.5 24.2 44.8 24.5 45.1 24.5H48.5C48.8 24.5 49.1 24.2 49.1 23.9V4.89999C49.1 4.59999 48.8 4.29999 48.5 4.29999H45.1Z" fill="#141414"/>
<path d="M79.2 4.89999C79.2 4.59999 79.5 4.29999 79.8 4.29999H86C89.6 4.29999 91.7 6.19999 91.7 9.49999C91.7 11.4 91.1 12.5 90.2 13.2C89.9 13.5 89.9 14 90.2 14.2C91.3 14.9 92.2 16.2 92.2 18.6C92.2 22.6 89.7 24.6 85.8 24.6H79.8C79.5 24.6 79.2 24.3 79.2 24V4.89999ZM85 12.2C86.7 12.2 87.1 11.5 87.1 9.89999C87.1 8.29999 86.5 7.69999 85 7.69999H84C83.8 7.69999 83.7 7.79999 83.7 7.99999V11.9C83.7 12.1 83.8 12.2 84 12.2H85ZM83.8 20.9C83.8 21.1 83.9 21.2 84.1 21.2H85.3C86.7 21.2 87.5 20.5 87.5 18.4C87.5 16.3 86.9 15.5 85 15.5H84.1C83.9 15.5 83.8 15.6 83.8 15.8V20.9Z" fill="#141414"/>
<path d="M129.8 4.29999C130.1 4.29999 130.4 4.59999 130.4 4.89999V18.5C130.4 19.8 130.7 21.3 132.3 21.3C133.9 21.3 134.2 20 134.2 18.5V4.89999C134.2 4.59999 134.5 4.29999 134.8 4.29999H138.2C138.5 4.29999 138.8 4.59999 138.8 4.89999V18.4C138.8 22.5 136.8 25 132.1 25C127.4 25 125.6 22.6 125.6 18.4V4.89999C125.6 4.59999 125.9 4.29999 126.2 4.29999H129.8Z" fill="#141414"/>
<path d="M140.5 4.89999C140.5 4.59999 140.8 4.29999 141.1 4.29999H147.2C150.8 4.29999 152.9 6.19999 152.9 9.49999C152.9 11.4 152.3 12.5 151.4 13.2C151.1 13.5 151.1 14 151.4 14.2C152.5 14.9 153.4 16.2 153.4 18.6C153.4 22.6 150.9 24.6 147 24.6H141C140.7 24.6 140.4 24.3 140.4 24V4.89999H140.5ZM146.3 12.2C148 12.2 148.4 11.5 148.4 9.89999C148.4 8.29999 147.8 7.69999 146.3 7.69999H145.3C145.1 7.69999 145 7.79999 145 7.99999V11.9C145 12.1 145.1 12.2 145.3 12.2H146.3ZM145 20.9C145 21.1 145.1 21.2 145.3 21.2H146.5C147.9 21.2 148.7 20.5 148.7 18.4C148.7 16.3 148.1 15.5 146.2 15.5H145.3C145.1 15.5 145 15.6 145 15.8V20.9Z" fill="#141414"/>
<path d="M172.2 20.5L171.6 24.3C171.6 24.4 171.4 24.6 171.3 24.6H167.3C167.1 24.6 167 24.4 167 24.2L170.9 4.49999C170.9 4.39999 171.1 4.29999 171.2 4.29999H177.3C177.4 4.29999 177.6 4.39999 177.6 4.49999L181.5 24.2C181.5 24.4 181.4 24.6 181.2 24.6H177C176.9 24.6 176.7 24.5 176.7 24.3L176.1 20.5C176.1 20.4 175.9 20.2 175.8 20.2H172.6C172.4 20.2 172.2 20.3 172.2 20.5ZM175 16.3C175.2 16.3 175.3 16.1 175.3 16C174.9 13.6 174.3 10.9 174.2 9.99999C174.2 9.89999 174.1 9.89999 174.1 9.99999C173.9 10.8 173.4 13.6 173 16C173 16.2 173.1 16.3 173.3 16.3C173.7 16.3 174.5 16.3 175 16.3Z" fill="#141414"/>
<path d="M118 11.9H116.3C116 11.9 115.7 11.6 115.7 11.3V4.89999C115.7 4.59999 115.4 4.29999 115.1 4.29999H111.7C111.4 4.29999 111.1 4.59999 111.1 4.89999V24C111.1 24.3 111.4 24.6 111.7 24.6H115.1C115.4 24.6 115.7 24.3 115.7 24V16.5C115.7 16.2 116 15.9 116.3 15.9H118C118.3 15.9 118.6 15.6 118.6 15.3V12.6C118.6 12.2 118.3 11.9 118 11.9Z" fill="#141414"/>
<path d="M120.1 4.29999C119.8 4.29999 119.5 4.59999 119.5 4.89999V10.5V12V15.9V16.9V23.9C119.5 24.2 119.8 24.5 120.1 24.5H123.5C123.8 24.5 124.1 24.2 124.1 23.9V4.89999C124.1 4.59999 123.8 4.29999 123.5 4.29999H120.1Z" fill="#141414"/>
<path d="M154.3 4.89999C154.3 4.59999 154.6 4.29999 154.9 4.29999H161C164.6 4.29999 166.7 6.19999 166.7 9.49999C166.7 11.4 166.1 12.5 165.2 13.2C164.9 13.5 164.9 14 165.2 14.2C166.3 14.9 167.2 16.2 167.2 18.6C167.2 22.6 164.7 24.6 160.8 24.6H154.8C154.5 24.6 154.2 24.3 154.2 24V4.89999H154.3ZM160.1 12.2C161.8 12.2 162.2 11.5 162.2 9.89999C162.2 8.29999 161.6 7.69999 160.1 7.69999H159.1C158.9 7.69999 158.8 7.79999 158.8 7.99999V11.9C158.8 12.1 158.9 12.2 159.1 12.2H160.1ZM158.8 20.9C158.8 21.1 158.9 21.2 159.1 21.2H160.3C161.7 21.2 162.5 20.5 162.5 18.4C162.5 16.3 161.9 15.5 160 15.5H159.1C158.9 15.5 158.8 15.6 158.8 15.8V20.9Z" fill="#141414"/>
<path d="M180.9 4.49999C181.1 4.59999 181.3 4.79999 181.4 5.09999C181.5 5.29999 181.6 5.59999 181.6 5.89999C181.6 6.19999 181.5 6.49999 181.4 6.69999C181.3 6.89999 181.1 7.09999 180.9 7.29999C180.7 7.39999 180.4 7.49999 180.1 7.49999C179.8 7.49999 179.5 7.39999 179.3 7.29999C179.1 7.19999 178.9 6.99999 178.7 6.69999C178.6 6.49999 178.5 6.19999 178.5 5.89999C178.5 5.59999 178.6 5.29999 178.7 5.09999C178.8 4.89999 179 4.69999 179.3 4.49999C179.5 4.39999 179.8 4.29999 180.1 4.29999C180.4 4.29999 180.6 4.29999 180.9 4.49999ZM180.8 7.09999C181 6.99999 181.2 6.79999 181.3 6.59999C181.4 6.39999 181.5 6.09999 181.5 5.89999C181.5 5.59999 181.4 5.39999 181.3 5.19999C181.2 4.99999 181 4.79999 180.8 4.69999C180.6 4.59999 180.3 4.49999 180.1 4.49999C179.8 4.49999 179.6 4.59999 179.4 4.69999C179.2 4.79999 179 4.99999 178.9 5.19999C178.8 5.39999 178.7 5.69999 178.7 5.89999C178.7 6.19999 178.8 6.39999 178.9 6.59999C179 6.79999 179.2 6.99999 179.4 7.09999C179.6 7.19999 179.9 7.29999 180.1 7.29999C180.3 7.19999 180.6 7.19999 180.8 7.09999ZM180.7 5.69999C180.6 5.79999 180.5 5.89999 180.3 5.89999L180.9 6.79999H180.6L180 5.89999H179.7V6.69999H179.4V4.69999H180.1C180.3 4.69999 180.5 4.79999 180.6 4.89999C180.7 4.99999 180.8 5.09999 180.8 5.29999C180.8 5.49999 180.8 5.59999 180.7 5.69999ZM179.7 5.69999H180.1C180.4 5.69999 180.5 5.59999 180.5 5.29999C180.5 5.19999 180.5 5.09999 180.4 4.99999C180.3 4.89999 180.2 4.89999 180.1 4.89999H179.7V5.69999Z" fill="#141414"/>
</g>
<defs>
<clipPath id="clip0">
<rect width="181.6" height="37.2" fill="white"/>
</clipPath>
</defs>
</svg>
