<svg width="72" height="72" viewBox="0 0 72 72" fill="none" xmlns="http://www.w3.org/2000/svg">
<circle cx="36" cy="36" r="36" fill="#006FF9"/>
<path fill-rule="evenodd" clip-rule="evenodd" d="M12.3888 19C11.0695 19 10 20.0656 10 21.38V21.8109C10 21.8109 10 21.8109 10 21.8109V49.496C10 52.534 12.4751 55 15.5243 55H57.4757C60.5249 55 63 52.534 63 49.496V21.38C63 20.0656 61.9305 19 60.6112 19H12.3888ZM58.2225 27.5367L40.3516 45.2541L40.3495 45.2562C39.2812 46.3193 37.8749 46.8472 36.4709 46.8398C35.0403 46.846 33.6076 46.3174 32.5403 45.2541L14.7775 27.5567V49.496C14.7775 49.9052 15.1136 50.24 15.5243 50.24H57.4757C57.8864 50.24 58.2225 49.9052 58.2225 49.496V27.5367ZM55.2587 23.76H17.7413L36.0267 41.8883C36.1487 42.0099 36.3108 42.0736 36.4749 42.0795C36.7026 42.0727 36.8746 41.9867 36.9733 41.8883L36.9775 41.8841L55.2587 23.76Z" fill="white"/>
</svg>
