<svg width="277" height="65" viewBox="0 0 277 65" fill="none" xmlns="http://www.w3.org/2000/svg">
<rect x="7.5" y="5.5" width="269" height="59" rx="9.5" stroke="#141414"/>
<rect width="270" height="60" rx="10" fill="url(#paint0_linear)"/>
<rect width="270" height="60" rx="10" stroke="black"/>
<path d="M255.103 28.4061C255.735 28.9986 255.735 30.0014 255.103 30.5939L242.026 42.8626C241.068 43.7613 239.5 43.0821 239.5 41.7687L239.5 17.2313C239.5 15.9179 241.068 15.2387 242.026 16.1374L255.103 28.4061Z" stroke="white"/>
<path d="M74.194 31.624H78.226V34H71.116V21.364H74.194V31.624ZM84.5721 23.83V26.386H88.6941V28.762H84.5721V31.534H89.2341V34H81.4941V21.364H89.2341V23.83H84.5721ZM102.122 21.364V23.83H98.7744V34H95.6964V23.83H92.3484V21.364H102.122ZM106.169 21.364H109.319L107.303 26.188H105.233L106.169 21.364ZM117.499 34.126C116.575 34.126 115.747 33.976 115.015 33.676C114.283 33.376 113.695 32.932 113.251 32.344C112.819 31.756 112.591 31.048 112.567 30.22H115.843C115.891 30.688 116.053 31.048 116.329 31.3C116.605 31.54 116.965 31.66 117.409 31.66C117.865 31.66 118.225 31.558 118.489 31.354C118.753 31.138 118.885 30.844 118.885 30.472C118.885 30.16 118.777 29.902 118.561 29.698C118.357 29.494 118.099 29.326 117.787 29.194C117.487 29.062 117.055 28.912 116.491 28.744C115.675 28.492 115.009 28.24 114.493 27.988C113.977 27.736 113.533 27.364 113.161 26.872C112.789 26.38 112.603 25.738 112.603 24.946C112.603 23.77 113.029 22.852 113.881 22.192C114.733 21.52 115.843 21.184 117.211 21.184C118.603 21.184 119.725 21.52 120.577 22.192C121.429 22.852 121.885 23.776 121.945 24.964H118.615C118.591 24.556 118.441 24.238 118.165 24.01C117.889 23.77 117.535 23.65 117.103 23.65C116.731 23.65 116.431 23.752 116.203 23.956C115.975 24.148 115.861 24.43 115.861 24.802C115.861 25.21 116.053 25.528 116.437 25.756C116.821 25.984 117.421 26.23 118.237 26.494C119.053 26.77 119.713 27.034 120.217 27.286C120.733 27.538 121.177 27.904 121.549 28.384C121.921 28.864 122.107 29.482 122.107 30.238C122.107 30.958 121.921 31.612 121.549 32.2C121.189 32.788 120.661 33.256 119.965 33.604C119.269 33.952 118.447 34.126 117.499 34.126ZM140.506 21.364V23.83H137.158V34H134.08V23.83H130.732V21.364H140.506ZM151.717 31.768H147.001L146.245 34H143.023L147.595 21.364H151.159L155.731 34H152.473L151.717 31.768ZM150.925 29.392L149.359 24.766L147.811 29.392H150.925ZM162 31.624H166.032V34H158.922V21.364H162V31.624ZM176.626 34L172.378 28.42V34H169.3V21.364H172.378V26.908L176.59 21.364H180.208L175.312 27.556L180.388 34H176.626Z" fill="white"/>
<defs>
<linearGradient id="paint0_linear" x1="41.5" y1="1.86223e-05" x2="242" y2="60" gradientUnits="userSpaceOnUse">
<stop stop-color="#006FF9"/>
<stop offset="0.941158" stop-color="#0060ED"/>
</linearGradient>
</defs>
</svg>
