<svg width="277" height="65" viewBox="0 0 277 65" fill="none" xmlns="http://www.w3.org/2000/svg">
<rect x="7.5" y="5.5" width="269" height="59" rx="9.5" stroke="#141414"/>
<rect width="270" height="60" rx="10" fill="url(#paint0_linear)"/>
<rect width="270" height="60" rx="10" stroke="black"/>
<path d="M255.103 28.4061C255.735 28.9986 255.735 30.0014 255.103 30.5939L242.026 42.8626C241.068 43.7613 239.5 43.0821 239.5 41.7687L239.5 17.2313C239.5 15.9179 241.068 15.2387 242.026 16.1374L255.103 28.4061Z" stroke="white"/>
<path d="M63.978 24.364L59.496 37H55.644L51.162 24.364H54.438L57.57 33.904L60.72 24.364H63.978ZM70.1424 24.364V37H67.0644V24.364H70.1424ZM77.251 26.83V29.386H81.373V31.762H77.251V34.534H81.913V37H74.173V24.364H81.913V26.83H77.251ZM103.099 24.364L99.8053 37H96.0793L94.0633 28.684L91.9753 37H88.2493L85.0453 24.364H88.3393L90.1573 33.562L92.4073 24.364H95.7913L97.9513 33.562L99.7873 24.364H103.099ZM121.687 28.432C121.687 29.164 121.519 29.836 121.183 30.448C120.847 31.048 120.331 31.534 119.635 31.906C118.939 32.278 118.075 32.464 117.043 32.464H115.135V37H112.057V24.364H117.043C118.051 24.364 118.903 24.538 119.599 24.886C120.295 25.234 120.817 25.714 121.165 26.326C121.513 26.938 121.687 27.64 121.687 28.432ZM116.809 30.016C117.397 30.016 117.835 29.878 118.123 29.602C118.411 29.326 118.555 28.936 118.555 28.432C118.555 27.928 118.411 27.538 118.123 27.262C117.835 26.986 117.397 26.848 116.809 26.848H115.135V30.016H116.809ZM131.534 37L128.906 32.23H128.168V37H125.09V24.364H130.256C131.252 24.364 132.098 24.538 132.794 24.886C133.502 25.234 134.03 25.714 134.378 26.326C134.726 26.926 134.9 27.598 134.9 28.342C134.9 29.182 134.66 29.932 134.18 30.592C133.712 31.252 133.016 31.72 132.092 31.996L135.008 37H131.534ZM128.168 30.052H130.076C130.64 30.052 131.06 29.914 131.336 29.638C131.624 29.362 131.768 28.972 131.768 28.468C131.768 27.988 131.624 27.61 131.336 27.334C131.06 27.058 130.64 26.92 130.076 26.92H128.168V30.052ZM144.608 37.126C143.42 37.126 142.328 36.85 141.332 36.298C140.348 35.746 139.562 34.978 138.974 33.994C138.398 32.998 138.11 31.882 138.11 30.646C138.11 29.41 138.398 28.3 138.974 27.316C139.562 26.332 140.348 25.564 141.332 25.012C142.328 24.46 143.42 24.184 144.608 24.184C145.796 24.184 146.882 24.46 147.866 25.012C148.862 25.564 149.642 26.332 150.206 27.316C150.782 28.3 151.07 29.41 151.07 30.646C151.07 31.882 150.782 32.998 150.206 33.994C149.63 34.978 148.85 35.746 147.866 36.298C146.882 36.85 145.796 37.126 144.608 37.126ZM144.608 34.318C145.616 34.318 146.42 33.982 147.02 33.31C147.632 32.638 147.938 31.75 147.938 30.646C147.938 29.53 147.632 28.642 147.02 27.982C146.42 27.31 145.616 26.974 144.608 26.974C143.588 26.974 142.772 27.304 142.16 27.964C141.56 28.624 141.26 29.518 141.26 30.646C141.26 31.762 141.56 32.656 142.16 33.328C142.772 33.988 143.588 34.318 144.608 34.318ZM162.502 24.364V32.968C162.502 34.3 162.124 35.326 161.368 36.046C160.624 36.766 159.616 37.126 158.344 37.126C157.012 37.126 155.944 36.748 155.14 35.992C154.336 35.236 153.934 34.162 153.934 32.77H156.994C156.994 33.298 157.102 33.7 157.318 33.976C157.534 34.24 157.846 34.372 158.254 34.372C158.626 34.372 158.914 34.252 159.118 34.012C159.322 33.772 159.424 33.424 159.424 32.968V24.364H162.502ZM169.867 26.83V29.386H173.989V31.762H169.867V34.534H174.529V37H166.789V24.364H174.529V26.83H169.867ZM177.805 30.664C177.805 29.416 178.075 28.306 178.615 27.334C179.155 26.35 179.905 25.588 180.865 25.048C181.837 24.496 182.935 24.22 184.159 24.22C185.659 24.22 186.943 24.616 188.011 25.408C189.079 26.2 189.793 27.28 190.153 28.648H186.769C186.517 28.12 186.157 27.718 185.689 27.442C185.233 27.166 184.711 27.028 184.123 27.028C183.175 27.028 182.407 27.358 181.819 28.018C181.231 28.678 180.937 29.56 180.937 30.664C180.937 31.768 181.231 32.65 181.819 33.31C182.407 33.97 183.175 34.3 184.123 34.3C184.711 34.3 185.233 34.162 185.689 33.886C186.157 33.61 186.517 33.208 186.769 32.68H190.153C189.793 34.048 189.079 35.128 188.011 35.92C186.943 36.7 185.659 37.09 184.159 37.09C182.935 37.09 181.837 36.82 180.865 36.28C179.905 35.728 179.155 34.966 178.615 33.994C178.075 33.022 177.805 31.912 177.805 30.664ZM202.928 24.364V26.83H199.58V37H196.502V26.83H193.154V24.364H202.928Z" fill="white"/>
<defs>
<linearGradient id="paint0_linear" x1="41.5" y1="1.86223e-05" x2="242" y2="60" gradientUnits="userSpaceOnUse">
<stop stop-color="#006FF9"/>
<stop offset="0.941158" stop-color="#0060ED"/>
</linearGradient>
</defs>
</svg>
